<svg xmlns="http://www.w3.org/2000/svg" xmlns:xlink="http://www.w3.org/1999/xlink" viewBox="0 0 775.66 547.43">
  <defs>
    <style>
      .cls-1 {
        fill: url(#linear-gradient);
      }

      .cls-2 {
        fill: #fff;
      }

      .cls-3 {
        fill: url(#linear-gradient-2);
      }

      .cls-4 {
        fill: #d63b27;
      }

      .cls-5 {
        fill: #1b4823;
      }

      .cls-6 {
        fill: #333e33;
      }
    </style>
    <linearGradient id="linear-gradient" x1="381.31" y1="-22.95" x2="381.31" y2="256.07" gradientUnits="userSpaceOnUse">
      <stop offset="0" stop-color="#eb5326"/>
      <stop offset="1" stop-color="#d63a27"/>
    </linearGradient>
    <linearGradient id="linear-gradient-2" x1="386.13" y1="132.63" x2="394.61" y2="449.86" gradientUnits="userSpaceOnUse">
      <stop offset="0.1" stop-color="#326f3a"/>
      <stop offset="1" stop-color="#1b3e20"/>
    </linearGradient>
  </defs>
  <title>Asset 1</title>
  <g id="Layer_2" data-name="Layer 2">
    <g id="Layer_1-2" data-name="Layer 1">
      <g id="Icon_Main" data-name="Icon Main">
        <path id="Sun" class="cls-1" d="M616,227.35c-18.16,9.45-36.85,20.09-55.87,32.08q-8.08,5.1-15.82,10.26-9,6-17.64,12c-13.47,9.37-26.1,18.69-37.91,27.81,1.74-60.9-47.3-111.39-106.11-112-56.17-.56-104.82,44.6-108.17,102.66q-9.86-7.82-20.84-15.84-9.09-6.63-18.94-13.31-8.2-5.58-17-11.16c-7.16-4.54-16.36-10.12-22.63-13.75C175,234.46,150.52,223,146.63,221.16,154.13,96.15,260.1-2,385,0,509.3,2,611.8,102.7,616,227.35Z"/>
        <g id="Rays">
          <path class="cls-2" d="M382.92,45.55q-2.49,62.86-5,125.73a5.53,5.53,0,0,0,5.27,5.8h.21a5.54,5.54,0,0,0,5.38-5.82q-2.71-62.85-5.44-125.71A.23.23,0,0,0,382.92,45.55Z"/>
          <path class="cls-2" d="M316.27,115.65q10.49,33.14,21,66.25a3.55,3.55,0,0,0,4.32,2.18l.51-.15.07,0a3.62,3.62,0,0,0,2.37-4.66q-13.61-32-27.19-64A.55.55,0,0,0,316.27,115.65Z"/>
          <path class="cls-2" d="M217.32,105.41l77.77,99.5a5.57,5.57,0,0,0,7.78,1.05l.08-.06.08-.07a5.49,5.49,0,0,0,.35-7.88q-42.86-46.42-85.7-92.84A.23.23,0,0,0,217.32,105.41Z"/>
          <path class="cls-2" d="M211.74,201.56l59,37.41a3.56,3.56,0,0,0,4.72-1.09,3.73,3.73,0,0,0,.29-.44l0-.06a3.62,3.62,0,0,0-1.21-5.08l-62.31-31.68A.54.54,0,0,0,211.74,201.56Z"/>
          <path class="cls-2" d="M259.1,278.46s0,.06,0,.1,0,.06,0,.1a5.56,5.56,0,0,1-6.68,4.13l-.5-.1c-6.1-4.41-12.46-8.87-19.09-13.31l21.45,2.82A5.52,5.52,0,0,1,259.1,278.46Z"/>
          <path class="cls-2" d="M546,268.7q-9.12,6-17.79,12L512.94,284a5.56,5.56,0,0,1-6.72-4.23s0-.06,0-.1a.41.41,0,0,1,0-.11,5.48,5.48,0,0,1,4.81-6.14Z"/>
          <path class="cls-2" d="M555.6,203.55,493.4,235.5a3.51,3.51,0,0,0-1.41,4.6c.07.15.15.31.24.47l0,.06a3.69,3.69,0,0,0,5.05,1.5l58.84-37.64A.55.55,0,0,0,555.6,203.55Z"/>
          <path class="cls-2" d="M548.59,105.19l-85.34,93.15a5.47,5.47,0,0,0,.28,7.8.27.27,0,0,0,.08.07l.08.07a5.6,5.6,0,0,0,7.89-1L549,105.48A.23.23,0,0,0,548.59,105.19Z"/>
          <path class="cls-2" d="M452.07,116.43l-26.91,64.11a3.52,3.52,0,0,0,1.89,4.42l.49.2.07,0a3.68,3.68,0,0,0,4.84-2.06Q442.79,150,453.11,116.8A.55.55,0,0,0,452.07,116.43Z"/>
        </g>
        <path id="LC" class="cls-3" d="M311.53,356.93C252.14,293.14,184.69,254.36,125,230.6A592.52,592.52,0,0,0,0,196.35c51.06,20.75,84.48,47,105.78,67.53,7.52,7.25,14.62,14.93,21.5,22.8,12.83,14.66,24.92,30,37.76,44.64,25.44,28.93,53,58.25,84.46,80.24,19.67,13.76,41.43,24.35,64.71,29.54,16.53,3.67,31,6.24,34.6,6.64a231.3,231.3,0,0,0,30.76,1.43A509.17,509.17,0,0,0,311.53,356.93ZM640.85,234.62c-57.22,24.07-120.58,62-176.72,122.31a508.31,508.31,0,0,0-68.05,92.24,231,231,0,0,0,30.75-1.43c3.65-.4,18.07-3,34.6-6.64,23.3-5.19,45-15.78,64.71-29.54,31.48-22,59.05-51.31,84.48-80.24,8.46-9.65,16.62-19.63,24.89-29.5,10.94-13.12,22.07-26.09,34.35-37.94,21.33-20.55,54.74-46.78,105.8-67.53A592.72,592.72,0,0,0,640.85,234.62Z"/>
      </g>
      <g id="Letter_Icon" data-name="Letter Icon">
        <path id="E" class="cls-4" d="M381.71,260.59a31.24,31.24,0,0,1,8.38,3,31.58,31.58,0,0,1,10.23,8.69h41.51v-11.9Zm18.5,39.14a21.53,21.53,0,0,1-11.89,8.69,17.67,17.67,0,0,1,6.51,3.32h44.83v-12Z"/>
        <path id="R" class="cls-5" d="M395.68,343.65c-.11-2.29-.11-4.58-.11-6.75v-4.23c0-11.32-3.09-17.61-7.43-20.93a17.71,17.71,0,0,0-6.52-3.32,21.53,21.53,0,0,0,11.89-8.69A24,24,0,0,0,397.4,286a24.9,24.9,0,0,0-3.78-13.72c-4.68-7.32-13.72-11.9-26.64-11.9H328.9v95.26h14V314.37h18.3c16.81,0,20.47,5.72,20.47,18.64V335c0,9.15-.12,16.59,1.6,20.7h58.61v-12Zm-32.82-40.94h-20V272.06h21.27c12.47,0,18.75,5.49,18.75,15.21C382.87,297.44,376.81,302.71,362.86,302.71Z"/>
      </g>
      <g>
        <path class="cls-6" d="M63.74,523.37v23.29H53.59V490.4H76.93c11.8,0,18.13,6.59,18.13,15.31,0,7.47-4.06,11.68-8.5,13.29,3.34,1.09,7.4,4.18,7.4,14.14v2.65c0,3.82,0,8.33.77,10.87H84.85c-1-2.44-1.07-6.71-1.07-12.45v-1c0-6.78-1.77-9.89-11-9.89Zm0-8.52h10.7c7.18,0,10.11-2.77,10.11-8,0-5.06-3.24-7.9-9.65-7.9H63.74Z"/>
        <path class="cls-6" d="M116.54,532.34l-4.87,14.32H101.46l19.07-56.26h12.94l19.88,56.26H142.43l-5.08-14.32ZM135,523.59c-4.38-12.87-7-20.55-8.3-25.34h-.08c-1.36,5.28-4.28,14.34-7.8,25.34Z"/>
        <path class="cls-6" d="M161,490.4h23.12c12.77,0,18,6.81,18,14.28,0,6.41-3.43,10.57-7.34,12.22a13.54,13.54,0,0,1,9,13c0,10-7.6,16.72-18.91,16.72H161ZM182.7,513c6.47,0,9.08-2.81,9.08-7.29s-3.22-7-8.47-7H171.13V513Zm-11.57,25.36h11.75c6.62,0,10.19-2.94,10.19-8.7,0-5.07-3.21-8.38-10.71-8.38H171.13Z"/>
        <path class="cls-6" d="M224,490.4v56.26H213.66V490.4Z"/>
        <path class="cls-6" d="M294.09,521.7H267.32v16.22H296.8l-1.25,8.74h-38.3V490.4H295.3v8.75h-28V513h26.77Z"/>
        <path class="cls-6" d="M305.87,546.66V490.4h13c7.25,12.81,21.53,37.38,24.26,43.5h.14c-.6-6.33-.57-15.79-.57-25V490.4h9.48v56.26H339.88c-6.4-11.41-21.84-38.93-24.83-45.36h-.13c.4,5.43.49,16.29.49,26.39v19Z"/>
        <path class="cls-6" d="M377.62,499.15H360.48V490.4h44.63v8.75H388v47.51H377.62Z"/>
        <path class="cls-6" d="M449.53,521.7H422.76v16.22h29.48L451,546.66H412.68V490.4h38.06v8.75h-28V513h26.77Z"/>
        <path class="cls-6" d="M471.46,523.37v23.29H461.3V490.4h23.34c11.81,0,18.14,6.59,18.14,15.31,0,7.47-4.07,11.68-8.5,13.29,3.34,1.09,7.39,4.18,7.39,14.14v2.65c0,3.82,0,8.33.78,10.87h-9.88c-1-2.44-1.07-6.71-1.07-12.45v-1c0-6.78-1.77-9.89-11-9.89Zm0-8.52h10.69c7.19,0,10.12-2.77,10.12-8,0-5.06-3.24-7.9-9.65-7.9H471.46Z"/>
        <path class="cls-6" d="M514,490.4h22.19c11.4,0,19.15,6.52,19.15,17.06,0,11.79-8.63,17.47-19.48,17.47H524.37v21.73H514Zm10.37,26h10.38c6.22,0,10.08-2.71,10.08-8.73s-4.28-8.76-9.82-8.76H524.37Z"/>
        <path class="cls-6" d="M574.93,523.37v23.29H564.77V490.4h23.34c11.8,0,18.13,6.59,18.13,15.31,0,7.47-4.06,11.68-8.49,13.29,3.34,1.09,7.39,4.18,7.39,14.14v2.65c0,3.82,0,8.33.78,10.87H596c-1-2.44-1.08-6.71-1.08-12.45v-1c0-6.78-1.76-9.89-11-9.89Zm0-8.52h10.69c7.19,0,10.12-2.77,10.12-8,0-5.06-3.24-7.9-9.65-7.9H574.93Z"/>
        <path class="cls-6" d="M627.82,490.4v56.26H617.46V490.4Z"/>
        <path class="cls-6" d="M647.59,530.46c1.34,6,5.51,8.9,12.45,8.9,7.14,0,10.1-3.1,10.1-7.63,0-4.94-2.68-7.33-12.68-9.74-14.33-3.46-18.32-8.68-18.32-16.38,0-9.31,6.8-16,19.62-16,14.14,0,19.83,7.93,20.6,15.87H668.91c-.72-4-3-7.87-10.45-7.87-5.49,0-8.7,2.4-8.7,6.86s2.61,6.14,11.78,8.34c16,3.88,19.22,10,19.22,17.71,0,9.86-7.27,16.93-21.49,16.93-14,0-20.87-7.28-22.14-17Z"/>
        <path class="cls-6" d="M727.12,521.7H700.35v16.22h29.48l-1.25,8.74H690.27V490.4h38.06v8.75h-28V513h26.77Z"/>
      </g>
    </g>
  </g>
</svg>
